<mxfile host="65bd71144e">
    <diagram id="MhPVP1q_R47ChzxiW-hq" name="Page-1">
        <mxGraphModel dx="992" dy="598" grid="1" gridSize="10" guides="1" tooltips="1" connect="1" arrows="1" fold="1" page="1" pageScale="1" pageWidth="850" pageHeight="1100" math="0" shadow="0">
            <root>
                <mxCell id="0"/>
                <mxCell id="1" parent="0"/>
                <mxCell id="8" value="&amp;lt;&amp;lt;keyword&amp;gt;&amp;gt;&lt;br&gt;&lt;span style=&quot;font-weight: 700;&quot;&gt;Shape&lt;/span&gt;&lt;br&gt;{abstract}" style="swimlane;fontStyle=0;align=center;verticalAlign=top;childLayout=stackLayout;horizontal=1;startSize=55;horizontalStack=0;resizeParent=1;resizeParentMax=0;resizeLast=0;collapsible=0;marginBottom=0;html=1;rounded=1;sketch=1;curveFitting=1;jiggle=2;" parent="1" vertex="1">
                    <mxGeometry x="315" y="420" width="165" height="330" as="geometry"/>
                </mxCell>
                <mxCell id="9" value="attributes" style="text;html=1;strokeColor=none;fillColor=none;align=center;verticalAlign=middle;spacingLeft=4;spacingRight=4;overflow=hidden;rotatable=0;points=[[0,0.5],[1,0.5]];portConstraint=eastwest;rounded=1;sketch=1;curveFitting=1;jiggle=2;" parent="8" vertex="1">
                    <mxGeometry y="55" width="165" height="20" as="geometry"/>
                </mxCell>
                <mxCell id="10" value="&amp;nbsp;- id: int&lt;br style=&quot;border-color: var(--border-color); padding: 0px; margin: 0px;&quot;&gt;&amp;nbsp;# label: string&lt;br style=&quot;border-color: var(--border-color); padding: 0px; margin: 0px;&quot;&gt;&amp;nbsp;# size:&amp;nbsp;double&lt;br style=&quot;border-color: var(--border-color); padding: 0px; margin: 0px;&quot;&gt;&amp;nbsp;# volume: double&lt;br style=&quot;border-color: var(--border-color); padding: 0px; margin: 0px;&quot;&gt;&amp;nbsp;# surface_nodes:&lt;br style=&quot;border-color: var(--border-color); padding: 0px; margin: 0px;&quot;&gt;VecXT&amp;lt;Vec3d&amp;gt;&lt;br style=&quot;border-color: var(--border-color); padding: 0px; margin: 0px;&quot;&gt;……" style="text;html=1;strokeColor=none;fillColor=none;align=left;verticalAlign=middle;spacingLeft=4;spacingRight=4;overflow=hidden;rotatable=0;points=[[0,0.5],[1,0.5]];portConstraint=eastwest;rounded=1;sketch=1;curveFitting=1;jiggle=2;" parent="8" vertex="1">
                    <mxGeometry y="75" width="165" height="105" as="geometry"/>
                </mxCell>
                <mxCell id="13" value="" style="line;strokeWidth=1;fillColor=none;align=left;verticalAlign=middle;spacingTop=-1;spacingLeft=3;spacingRight=3;rotatable=0;labelPosition=right;points=[];portConstraint=eastwest;rounded=1;sketch=1;curveFitting=1;jiggle=2;" parent="8" vertex="1">
                    <mxGeometry y="180" width="165" height="8" as="geometry"/>
                </mxCell>
                <mxCell id="14" value="operations" style="text;html=1;strokeColor=none;fillColor=none;align=center;verticalAlign=middle;spacingLeft=4;spacingRight=4;overflow=hidden;rotatable=0;points=[[0,0.5],[1,0.5]];portConstraint=eastwest;rounded=1;sketch=1;curveFitting=1;jiggle=2;" parent="8" vertex="1">
                    <mxGeometry y="188" width="165" height="20" as="geometry"/>
                </mxCell>
                <mxCell id="15" value="&amp;nbsp;+ GetSize(): double&lt;br style=&quot;border-color: var(--border-color); padding: 0px; margin: 0px;&quot;&gt;&amp;nbsp;+ GetVolume(): double&lt;br style=&quot;border-color: var(--border-color); padding: 0px; margin: 0px;&quot;&gt;&amp;nbsp;+ SetSize(d: double): void&lt;br style=&quot;border-color: var(--border-color); padding: 0px; margin: 0px;&quot;&gt;&amp;nbsp;+ SaveAsSTL(filename:&lt;br style=&quot;border-color: var(--border-color); padding: 0px; margin: 0px;&quot;&gt;&amp;nbsp; &amp;nbsp; &amp;nbsp;string):void&lt;br style=&quot;border-color: var(--border-color); padding: 0px; margin: 0px;&quot;&gt;&amp;nbsp;+ SetSurfaceNodes(surf_stl:&lt;br style=&quot;border-color: var(--border-color); padding: 0px; margin: 0px;&quot;&gt;&amp;nbsp; &amp;nbsp; &amp;nbsp;STLModel):void&lt;br style=&quot;border-color: var(--border-color); padding: 0px; margin: 0px;&quot;&gt;……" style="text;html=1;strokeColor=none;fillColor=none;align=left;verticalAlign=middle;spacingLeft=4;spacingRight=4;overflow=hidden;rotatable=0;points=[[0,0.5],[1,0.5]];portConstraint=eastwest;rounded=1;sketch=1;curveFitting=1;jiggle=2;" parent="8" vertex="1">
                    <mxGeometry y="208" width="165" height="122" as="geometry"/>
                </mxCell>
                <mxCell id="49" value="&amp;lt;&amp;lt;Shape&amp;gt;&amp;gt;&lt;br&gt;&lt;b&gt;Trimesh&lt;/b&gt;&lt;br&gt;{abstract}" style="swimlane;fontStyle=0;align=center;verticalAlign=top;childLayout=stackLayout;horizontal=1;startSize=55;horizontalStack=0;resizeParent=1;resizeParentMax=0;resizeLast=0;collapsible=0;marginBottom=0;html=1;rounded=1;sketch=1;curveFitting=1;jiggle=2;" parent="1" vertex="1">
                    <mxGeometry x="100" y="450" width="165" height="300" as="geometry"/>
                </mxCell>
                <mxCell id="50" value="attributes" style="text;html=1;strokeColor=none;fillColor=none;align=center;verticalAlign=middle;spacingLeft=4;spacingRight=4;overflow=hidden;rotatable=0;points=[[0,0.5],[1,0.5]];portConstraint=eastwest;rounded=1;sketch=1;curveFitting=1;jiggle=2;" parent="49" vertex="1">
                    <mxGeometry y="55" width="165" height="20" as="geometry"/>
                </mxCell>
                <mxCell id="51" value="&amp;nbsp;- vertices: VecXT&amp;lt;Vec3d&amp;gt;&lt;br style=&quot;border-color: var(--border-color); padding: 0px; margin: 0px;&quot;&gt;&amp;nbsp;- facets: VecXT&amp;lt;Vec3i&amp;gt;&lt;br style=&quot;border-color: var(--border-color); padding: 0px; margin: 0px;&quot;&gt;&amp;nbsp;- vertices_neighs:&lt;br style=&quot;border-color: var(--border-color); padding: 0px; margin: 0px;&quot;&gt;VecXT&amp;lt;VecXT&amp;lt;int&amp;gt;&amp;gt;&lt;br style=&quot;border-color: var(--border-color); padding: 0px; margin: 0px;&quot;&gt;&amp;nbsp;- VecXT&amp;lt;VecXT&amp;lt;int&amp;gt;&amp;gt;&lt;br style=&quot;border-color: var(--border-color); padding: 0px; margin: 0px;&quot;&gt;linked_vertices;&lt;br style=&quot;border-color: var(--border-color); padding: 0px; margin: 0px;&quot;&gt;……" style="text;html=1;strokeColor=none;fillColor=none;align=left;verticalAlign=middle;spacingLeft=4;spacingRight=4;overflow=hidden;rotatable=0;points=[[0,0.5],[1,0.5]];portConstraint=eastwest;rounded=1;sketch=1;curveFitting=1;jiggle=2;" parent="49" vertex="1">
                    <mxGeometry y="75" width="165" height="105" as="geometry"/>
                </mxCell>
                <mxCell id="52" value="" style="line;strokeWidth=1;fillColor=none;align=left;verticalAlign=middle;spacingTop=-1;spacingLeft=3;spacingRight=3;rotatable=0;labelPosition=right;points=[];portConstraint=eastwest;rounded=1;sketch=1;curveFitting=1;jiggle=2;" parent="49" vertex="1">
                    <mxGeometry y="180" width="165" height="8" as="geometry"/>
                </mxCell>
                <mxCell id="53" value="operations" style="text;html=1;strokeColor=none;fillColor=none;align=center;verticalAlign=middle;spacingLeft=4;spacingRight=4;overflow=hidden;rotatable=0;points=[[0,0.5],[1,0.5]];portConstraint=eastwest;rounded=1;sketch=1;curveFitting=1;jiggle=2;" parent="49" vertex="1">
                    <mxGeometry y="188" width="165" height="20" as="geometry"/>
                </mxCell>
                <mxCell id="54" value="&amp;nbsp;+ UpdateLinked&lt;br style=&quot;border-color: var(--border-color); padding: 0px; margin: 0px;&quot;&gt;VerticesSub(vid:int):void&lt;br style=&quot;border-color: var(--border-color); padding: 0px; margin: 0px;&quot;&gt;&amp;nbsp;+ SupportPoint_&lt;br style=&quot;border-color: var(--border-color); padding: 0px; margin: 0px;&quot;&gt;LinkedVertices(dir:Vec3d)&lt;br style=&quot;border-color: var(--border-color); padding: 0px; margin: 0px;&quot;&gt;:Vec3d&lt;br style=&quot;border-color: var(--border-color); padding: 0px; margin: 0px;&quot;&gt;……" style="text;html=1;strokeColor=none;fillColor=none;align=left;verticalAlign=middle;spacingLeft=4;spacingRight=4;overflow=hidden;rotatable=0;points=[[0,0.5],[1,0.5]];portConstraint=eastwest;rounded=1;sketch=1;curveFitting=1;jiggle=2;" parent="49" vertex="1">
                    <mxGeometry y="208" width="165" height="92" as="geometry"/>
                </mxCell>
                <mxCell id="55" value="&amp;lt;&amp;lt;Shape&amp;gt;&amp;gt;&lt;br&gt;&lt;span style=&quot;font-weight: 700;&quot;&gt;LevelSet&lt;/span&gt;&lt;br&gt;{abstract}" style="swimlane;fontStyle=0;align=center;verticalAlign=top;childLayout=stackLayout;horizontal=1;startSize=55;horizontalStack=0;resizeParent=1;resizeParentMax=0;resizeLast=0;collapsible=0;marginBottom=0;html=1;rounded=1;sketch=1;curveFitting=1;jiggle=2;" parent="1" vertex="1">
                    <mxGeometry x="520" y="490" width="185" height="260" as="geometry"/>
                </mxCell>
                <mxCell id="56" value="attributes" style="text;html=1;strokeColor=none;fillColor=none;align=center;verticalAlign=middle;spacingLeft=4;spacingRight=4;overflow=hidden;rotatable=0;points=[[0,0.5],[1,0.5]];portConstraint=eastwest;rounded=1;sketch=1;curveFitting=1;jiggle=2;" parent="55" vertex="1">
                    <mxGeometry y="55" width="185" height="20" as="geometry"/>
                </mxCell>
                <mxCell id="57" value="&amp;nbsp;-&amp;nbsp;spacing: double;&lt;br style=&quot;border-color: var(--border-color); padding: 0px; margin: 0px;&quot;&gt;&amp;nbsp;- dim: Vec3i;&lt;br style=&quot;border-color: var(--border-color); padding: 0px; margin: 0px;&quot;&gt;&amp;nbsp;-&amp;nbsp;signed_distance_table:&lt;br style=&quot;border-color: var(--border-color); padding: 0px; margin: 0px;&quot;&gt;VecXT&amp;lt;VecXT&amp;lt;&lt;br style=&quot;border-color: var(--border-color); padding: 0px; margin: 0px;&quot;&gt;VecXT&amp;lt;double&amp;gt;&amp;gt;&amp;gt;;&lt;br style=&quot;border-color: var(--border-color); padding: 0px; margin: 0px;&quot;&gt;……" style="text;html=1;strokeColor=none;fillColor=none;align=left;verticalAlign=middle;spacingLeft=4;spacingRight=4;overflow=hidden;rotatable=0;points=[[0,0.5],[1,0.5]];portConstraint=eastwest;rounded=1;sketch=1;curveFitting=1;jiggle=2;" parent="55" vertex="1">
                    <mxGeometry y="75" width="185" height="95" as="geometry"/>
                </mxCell>
                <mxCell id="58" value="" style="line;strokeWidth=1;fillColor=none;align=left;verticalAlign=middle;spacingTop=-1;spacingLeft=3;spacingRight=3;rotatable=0;labelPosition=right;points=[];portConstraint=eastwest;rounded=1;sketch=1;curveFitting=1;jiggle=2;" parent="55" vertex="1">
                    <mxGeometry y="170" width="185" height="8" as="geometry"/>
                </mxCell>
                <mxCell id="59" value="operations" style="text;html=1;strokeColor=none;fillColor=none;align=center;verticalAlign=middle;spacingLeft=4;spacingRight=4;overflow=hidden;rotatable=0;points=[[0,0.5],[1,0.5]];portConstraint=eastwest;rounded=1;sketch=1;curveFitting=1;jiggle=2;" parent="55" vertex="1">
                    <mxGeometry y="178" width="185" height="20" as="geometry"/>
                </mxCell>
                <mxCell id="60" value="&amp;nbsp;+ SetDimension(dim_x: double,&lt;br style=&quot;border-color: var(--border-color); padding: 0px; margin: 0px;&quot;&gt;dim_y: double, dim_z:double):&lt;br style=&quot;border-color: var(--border-color); padding: 0px; margin: 0px;&quot;&gt;void;&lt;br style=&quot;border-color: var(--border-color); padding: 0px; margin: 0px;&quot;&gt;……" style="text;html=1;strokeColor=none;fillColor=none;align=left;verticalAlign=middle;spacingLeft=4;spacingRight=4;overflow=hidden;rotatable=0;points=[[0,0.5],[1,0.5]];portConstraint=eastwest;rounded=1;sketch=1;curveFitting=1;jiggle=2;" parent="55" vertex="1">
                    <mxGeometry y="198" width="185" height="62" as="geometry"/>
                </mxCell>
                <mxCell id="61" value="&amp;lt;&amp;lt;Shape&amp;gt;&amp;gt;&lt;br&gt;&lt;span style=&quot;font-weight: 700;&quot;&gt;Coded-NetSDF&lt;/span&gt;&lt;br&gt;{abstract}" style="swimlane;fontStyle=0;align=center;verticalAlign=top;childLayout=stackLayout;horizontal=1;startSize=55;horizontalStack=0;resizeParent=1;resizeParentMax=0;resizeLast=0;collapsible=0;marginBottom=0;html=1;fillColor=#d5e8d4;strokeColor=#82b366;rounded=1;sketch=1;curveFitting=1;jiggle=2;" parent="1" vertex="1">
                    <mxGeometry x="520" y="240" width="185" height="210" as="geometry"/>
                </mxCell>
                <mxCell id="62" value="attributes" style="text;html=1;strokeColor=#82b366;fillColor=#d5e8d4;align=center;verticalAlign=middle;spacingLeft=4;spacingRight=4;overflow=hidden;rotatable=0;points=[[0,0.5],[1,0.5]];portConstraint=eastwest;rounded=1;sketch=1;curveFitting=1;jiggle=2;" parent="61" vertex="1">
                    <mxGeometry y="55" width="185" height="20" as="geometry"/>
                </mxCell>
                <mxCell id="63" value="&amp;nbsp;- net_sdf_model:&amp;nbsp;RegressionNet&lt;br style=&quot;border-color: var(--border-color); padding: 0px; margin: 0px;&quot;&gt;&amp;nbsp;- latent_code: VecXT&amp;lt;double&amp;gt;&amp;nbsp;" style="text;html=1;strokeColor=#82b366;fillColor=#d5e8d4;align=left;verticalAlign=middle;spacingLeft=4;spacingRight=4;overflow=hidden;rotatable=0;points=[[0,0.5],[1,0.5]];portConstraint=eastwest;rounded=1;sketch=1;curveFitting=1;jiggle=2;" parent="61" vertex="1">
                    <mxGeometry y="75" width="185" height="45" as="geometry"/>
                </mxCell>
                <mxCell id="64" value="" style="line;strokeWidth=1;fillColor=#d5e8d4;align=left;verticalAlign=middle;spacingTop=-1;spacingLeft=3;spacingRight=3;rotatable=0;labelPosition=right;points=[];portConstraint=eastwest;strokeColor=#82b366;rounded=1;sketch=1;curveFitting=1;jiggle=2;" parent="61" vertex="1">
                    <mxGeometry y="120" width="185" height="8" as="geometry"/>
                </mxCell>
                <mxCell id="65" value="operations" style="text;html=1;strokeColor=#82b366;fillColor=#d5e8d4;align=center;verticalAlign=middle;spacingLeft=4;spacingRight=4;overflow=hidden;rotatable=0;points=[[0,0.5],[1,0.5]];portConstraint=eastwest;rounded=1;sketch=1;curveFitting=1;jiggle=2;" parent="61" vertex="1">
                    <mxGeometry y="128" width="185" height="20" as="geometry"/>
                </mxCell>
                <mxCell id="66" value="- InitFromModelFiles&lt;br style=&quot;border-color: var(--border-color); padding: 0px; margin: 0px;&quot;&gt;(net_sdf_file: string,&lt;br style=&quot;border-color: var(--border-color); padding: 0px; margin: 0px;&quot;&gt;latent_code_file:string,&lt;br style=&quot;border-color: var(--border-color); padding: 0px; margin: 0px;&quot;&gt;id:int):void" style="text;html=1;strokeColor=#82b366;fillColor=#d5e8d4;align=left;verticalAlign=middle;spacingLeft=4;spacingRight=4;overflow=hidden;rotatable=0;points=[[0,0.5],[1,0.5]];portConstraint=eastwest;rounded=1;sketch=1;curveFitting=1;jiggle=2;" parent="61" vertex="1">
                    <mxGeometry y="148" width="185" height="62" as="geometry"/>
                </mxCell>
                <mxCell id="67" value="&amp;lt;&amp;lt;Shape&amp;gt;&amp;gt;&lt;br&gt;&lt;span style=&quot;font-weight: 700;&quot;&gt;NetSDF&lt;/span&gt;&lt;br&gt;{abstract}" style="swimlane;fontStyle=0;align=center;verticalAlign=top;childLayout=stackLayout;horizontal=1;startSize=55;horizontalStack=0;resizeParent=1;resizeParentMax=0;resizeLast=0;collapsible=0;marginBottom=0;html=1;fillColor=#d5e8d4;strokeColor=#82b366;rounded=1;sketch=1;curveFitting=1;jiggle=2;" parent="1" vertex="1">
                    <mxGeometry x="100" y="200" width="200" height="170" as="geometry"/>
                </mxCell>
                <mxCell id="68" value="attributes" style="text;html=1;strokeColor=#82b366;fillColor=#d5e8d4;align=center;verticalAlign=middle;spacingLeft=4;spacingRight=4;overflow=hidden;rotatable=0;points=[[0,0.5],[1,0.5]];portConstraint=eastwest;rounded=1;sketch=1;curveFitting=1;jiggle=2;" parent="67" vertex="1">
                    <mxGeometry y="55" width="200" height="20" as="geometry"/>
                </mxCell>
                <mxCell id="69" value="&amp;nbsp;- net_sdf_model:&amp;nbsp;RegressionNet" style="text;html=1;strokeColor=#82b366;fillColor=#d5e8d4;align=left;verticalAlign=middle;spacingLeft=4;spacingRight=4;overflow=hidden;rotatable=0;points=[[0,0.5],[1,0.5]];portConstraint=eastwest;rounded=1;sketch=1;curveFitting=1;jiggle=2;" parent="67" vertex="1">
                    <mxGeometry y="75" width="200" height="25" as="geometry"/>
                </mxCell>
                <mxCell id="70" value="" style="line;strokeWidth=1;fillColor=#d5e8d4;align=left;verticalAlign=middle;spacingTop=-1;spacingLeft=3;spacingRight=3;rotatable=0;labelPosition=right;points=[];portConstraint=eastwest;strokeColor=#82b366;rounded=1;sketch=1;curveFitting=1;jiggle=2;" parent="67" vertex="1">
                    <mxGeometry y="100" width="200" height="8" as="geometry"/>
                </mxCell>
                <mxCell id="71" value="operations" style="text;html=1;strokeColor=#82b366;fillColor=#d5e8d4;align=center;verticalAlign=middle;spacingLeft=4;spacingRight=4;overflow=hidden;rotatable=0;points=[[0,0.5],[1,0.5]];portConstraint=eastwest;rounded=1;sketch=1;curveFitting=1;jiggle=2;" parent="67" vertex="1">
                    <mxGeometry y="108" width="200" height="20" as="geometry"/>
                </mxCell>
                <mxCell id="72" value="- InitFromModelFiles&lt;br style=&quot;border-color: var(--border-color); padding: 0px; margin: 0px;&quot;&gt;(net_sdf_file: string):void" style="text;html=1;strokeColor=#82b366;fillColor=#d5e8d4;align=left;verticalAlign=middle;spacingLeft=4;spacingRight=4;overflow=hidden;rotatable=0;points=[[0,0.5],[1,0.5]];portConstraint=eastwest;rounded=1;sketch=1;curveFitting=1;jiggle=2;" parent="67" vertex="1">
                    <mxGeometry y="128" width="200" height="42" as="geometry"/>
                </mxCell>
            </root>
        </mxGraphModel>
    </diagram>
</mxfile>